<?xml version="1.0" encoding="UTF-8"?>
<svg width="128" height="128" viewBox="0 0 128 128" xmlns="http://www.w3.org/2000/svg">
  <!-- Background circle -->
  <circle cx="64" cy="64" r="60" fill="#4F46E5" stroke="#312E81" stroke-width="2"/>
  
  <!-- Chart background -->
  <rect x="25" y="30" width="78" height="68" fill="white" stroke="#E5E7EB" stroke-width="2" rx="4"/>
  
  <!-- Chart bars -->
  <rect x="32" y="65" width="8" height="25" fill="#10B981"/>
  <rect x="45" y="55" width="8" height="35" fill="#3B82F6"/>
  <rect x="58" y="70" width="8" height="20" fill="#EF4444"/>
  <rect x="71" y="45" width="8" height="45" fill="#8B5CF6"/>
  <rect x="84" y="60" width="8" height="30" fill="#F59E0B"/>
  
  <!-- Magnifying glass over chart -->
  <circle cx="75" cy="50" r="15" fill="none" stroke="white" stroke-width="3"/>
  <line x1="86" y1="61" x2="95" y2="70" stroke="white" stroke-width="3" stroke-linecap="round"/>
  
  <!-- Analysis arrows -->
  <path d="M 20 45 L 30 40 L 30 50 Z" fill="#34D399"/>
  <path d="M 108 75 L 98 70 L 98 80 Z" fill="#60A5FA"/>
  
  <!-- Grid lines -->
  <line x1="25" y1="45" x2="103" y2="45" stroke="#F3F4F6" stroke-width="1"/>
  <line x1="25" y1="60" x2="103" y2="60" stroke="#F3F4F6" stroke-width="1"/>
  <line x1="25" y1="75" x2="103" y2="75" stroke="#F3F4F6" stroke-width="1"/>
</svg>